<svg width="71" height="48" viewBox="0 0 71 48" fill="none" xmlns="http://www.w3.org/2000/svg">
<path d="M42.6514 36.26C42.8872 39.89 45.3736 41.03 48.4791 41.03C51.5846 41.03 54.1987 39.6 54.1987 36.69C54.1987 34.39 52.7442 32.63 48.5675 32.63C40.9611 32.63 36.0375 28.04 36.0375 20.73C36.0375 12.73 42.0912 8.72998 48.5675 8.72998C50.4758 8.62745 52.3745 9.06718 54.0513 9.99998L56.5082 6.72998L61.4219 10.55L58.4737 14C60.0682 15.8812 60.9224 18.2962 60.8716 20.78C60.8783 22.4934 60.4156 24.1749 59.5355 25.6356C58.6554 27.0964 57.3927 28.2788 55.889 29.05C61.0583 31.39 61.0583 35.26 61.0583 36.65C61.0583 43.65 54.8571 47.06 48.4791 47.06C40.45 47.1 36.2733 43 36.3618 36.26H42.6514ZM42.5531 20.73C42.5531 24.12 45.1377 26.37 48.5577 26.37C51.6141 26.37 54.3854 24.5 54.3854 20.73C54.4015 19.9468 54.2617 19.1683 53.9745 18.4415C53.6874 17.7146 53.2587 17.0544 52.7143 16.5004C52.1699 15.9465 51.5211 15.5103 50.8067 15.2181C50.0924 14.9258 49.3274 14.7836 48.5577 14.8C45.1377 14.81 42.5531 16.91 42.5531 20.73Z" fill="#73787B"/>
<path d="M63.2596 9.40002V33.05H70.021V9.40002H63.2596Z" fill="#73787B"/>
<path d="M63.2596 0V6.88H70.021V0H63.2596Z" fill="#73787B"/>
<path d="M6.71218 0V33.07H0V0H6.71218Z" fill="#73787B"/>
<path d="M8.84473 21.3099C8.84473 14.1899 13.7585 8.93994 21.4829 8.93994C29.2073 8.93994 34.2586 14.1899 34.2586 21.3099C34.2586 28.4299 29.4137 33.5899 21.4829 33.5899C13.5521 33.5899 8.84473 28.4299 8.84473 21.3099ZM27.517 21.3099C27.517 18.3099 25.7382 15.0999 21.6205 15.0999C17.5028 15.0999 15.724 18.3499 15.724 21.3099C15.724 24.2699 17.4634 27.4699 21.5517 27.4699C25.6399 27.4699 27.4285 24.4199 27.4285 21.3099H27.517Z" fill="#73787B"/>
</svg>
